<?xml version="1.0" encoding="UTF-8" standalone="no"?>
        <!DOCTYPE svg PUBLIC "-//W3C//DTD SVG 1.1//EN" 
        "http://www.w3.org/Graphics/SVG/1.1/DTD/svg11.dtd">
        <svg width="100" height="100"
            xmlns="http://www.w3.org/2000/svg" version="1.1">
         <path d="  M 88,94  L 65,94  L 65,93  L 35,93  L 35,94  L 12,94  L 12,52  L 11,52  L 11,53  L 10,53  L 10,54  L 9,54  L 9,53  L 8,53  L 8,52  L 7,52  L 7,51  L 6,51  L 6,49  L 7,49  L 7,48  L 8,48  L 8,47  L 9,47  L 9,46  L 10,46  L 10,45  L 11,45  L 11,44  L 12,44  L 12,43  L 13,43  L 13,42  L 14,42  L 14,41  L 15,41  L 15,40  L 16,40  L 16,39  L 17,39  L 17,38  L 18,38  L 18,37  L 19,37  L 19,36  L 20,36  L 20,35  L 21,35  L 21,34  L 22,34  L 22,33  L 23,33  L 23,32  L 24,32  L 24,31  L 25,31  L 25,30  L 26,30  L 26,29  L 27,29  L 27,28  L 28,28  L 28,27  L 29,27  L 29,26  L 30,26  L 30,25  L 31,25  L 31,24  L 32,24  L 32,23  L 33,23  L 33,22  L 34,22  L 34,21  L 35,21  L 35,20  L 36,20  L 36,19  L 37,19  L 37,18  L 38,18  L 38,17  L 39,17  L 39,16  L 40,16  L 40,15  L 41,15  L 41,14  L 42,14  L 42,13  L 43,13  L 43,12  L 44,12  L 44,11  L 45,11  L 45,10  L 46,10  L 46,9  L 47,9  L 47,8  L 48,8  L 48,7  L 49,7  L 49,6  L 51,6  L 51,7  L 52,7  L 52,8  L 53,8  L 53,9  L 54,9  L 54,10  L 55,10  L 55,11  L 56,11  L 56,12  L 57,12  L 57,13  L 58,13  L 58,14  L 59,14  L 59,15  L 60,15  L 60,16  L 61,16  L 61,17  L 62,17  L 62,18  L 63,18  L 63,19  L 64,19  L 64,20  L 65,20  L 65,21  L 66,21  L 66,22  L 67,22  L 67,23  L 68,23  L 68,15  L 82,15  L 82,38  L 83,38  L 83,39  L 84,39  L 84,40  L 85,40  L 85,41  L 86,41  L 86,42  L 87,42  L 87,43  L 88,43  L 88,44  L 89,44  L 89,45  L 90,45  L 90,46  L 91,46  L 91,47  L 92,47  L 92,48  L 93,48  L 93,49  L 94,49  L 94,51  L 93,51  L 93,52  L 92,52  L 92,53  L 91,53  L 91,54  L 90,54  L 90,53  L 89,53  L 89,52  L 88,52  Z  M 100,0  L 0,0  L 0,100  L 100,100  Z  " style="fill:rgb(0, 0, 0); fill-opacity:1.000; stroke:none;" />
 <path d="  M 42,58  L 42,57  L 41,57  L 41,58  Z  " style="fill:rgb(0, 0, 0); fill-opacity:1.000; stroke:none;" />
 <path d="  M 86,48  L 86,47  L 85,47  L 85,48  Z  " style="fill:rgb(0, 0, 0); fill-opacity:1.000; stroke:none;" />
 <path d="  M 54,20  L 55,20  L 55,21  L 56,21  L 56,22  L 57,22  L 57,23  L 58,23  L 58,24  L 59,24  L 59,25  L 60,25  L 60,26  L 61,26  L 61,27  L 62,27  L 62,28  L 63,28  L 63,29  L 65,29  L 65,30  L 66,30  L 66,31  L 67,31  L 67,32  L 68,32  L 68,33  L 69,33  L 69,34  L 70,34  L 70,35  L 71,35  L 71,36  L 72,36  L 72,37  L 73,37  L 73,38  L 74,38  L 74,39  L 75,39  L 75,40  L 76,40  L 76,41  L 77,41  L 77,42  L 79,42  L 79,43  L 80,43  L 80,45  L 81,45  L 81,46  L 83,46  L 83,47  L 84,47  L 84,49  L 85,49  L 85,53  L 86,53  L 86,51  L 87,51  L 87,52  L 89,52  L 89,53  L 90,53  L 90,54  L 91,54  L 91,53  L 92,53  L 92,52  L 93,52  L 93,51  L 94,51  L 94,49  L 93,49  L 93,48  L 92,48  L 92,47  L 91,47  L 91,46  L 90,46  L 90,45  L 89,45  L 89,44  L 88,44  L 88,43  L 87,43  L 87,42  L 86,42  L 86,41  L 85,41  L 85,40  L 84,40  L 84,39  L 83,39  L 83,38  L 82,38  L 82,29  L 80,29  L 80,28  L 79,28  L 79,30  L 78,30  L 78,33  L 77,33  L 77,32  L 76,32  L 76,31  L 75,31  L 75,30  L 74,30  L 74,29  L 73,29  L 73,28  L 72,28  L 72,23  L 71,23  L 71,19  L 72,19  L 72,22  L 73,22  L 73,23  L 74,23  L 74,24  L 75,24  L 75,25  L 76,25  L 76,26  L 77,26  L 77,27  L 78,27  L 78,19  L 82,19  L 82,15  L 68,15  L 68,23  L 67,23  L 67,22  L 66,22  L 66,21  L 65,21  L 65,20  L 64,20  L 64,19  L 63,19  L 63,18  L 62,18  L 62,17  L 61,17  L 61,16  L 60,16  L 60,15  L 59,15  L 59,14  L 58,14  L 58,13  L 57,13  L 57,12  L 56,12  L 56,11  L 55,11  L 55,10  L 54,10  L 54,9  L 53,9  L 53,8  L 52,8  L 52,7  L 51,7  L 51,6  L 49,6  L 49,7  L 48,7  L 48,8  L 47,8  L 47,9  L 46,9  L 46,10  L 45,10  L 45,11  L 44,11  L 44,12  L 43,12  L 43,13  L 42,13  L 42,14  L 41,14  L 41,15  L 40,15  L 40,16  L 39,16  L 39,17  L 38,17  L 38,18  L 37,18  L 37,19  L 36,19  L 36,20  L 35,20  L 35,21  L 34,21  L 34,22  L 33,22  L 33,23  L 32,23  L 32,24  L 31,24  L 31,25  L 30,25  L 30,26  L 29,26  L 29,27  L 28,27  L 28,28  L 27,28  L 27,29  L 26,29  L 26,30  L 25,30  L 25,31  L 24,31  L 24,32  L 23,32  L 23,33  L 22,33  L 22,34  L 21,34  L 21,35  L 20,35  L 20,36  L 19,36  L 19,37  L 18,37  L 18,38  L 17,38  L 17,39  L 16,39  L 16,40  L 15,40  L 15,41  L 14,41  L 14,42  L 13,42  L 13,43  L 12,43  L 12,44  L 11,44  L 11,45  L 10,45  L 10,46  L 9,46  L 9,47  L 8,47  L 8,48  L 7,48  L 7,49  L 6,49  L 6,51  L 7,51  L 7,52  L 8,52  L 8,53  L 9,53  L 9,54  L 10,54  L 10,53  L 11,53  L 11,52  L 12,52  L 12,51  L 14,51  L 14,53  L 15,53  L 15,50  L 16,50  L 16,48  L 17,48  L 17,47  L 18,47  L 18,46  L 19,46  L 19,45  L 20,45  L 20,44  L 21,44  L 21,43  L 22,43  L 22,42  L 23,42  L 23,41  L 24,41  L 24,40  L 25,40  L 25,39  L 27,39  L 27,37  L 28,37  L 28,36  L 29,36  L 29,35  L 31,35  L 31,34  L 32,34  L 32,33  L 33,33  L 33,32  L 34,32  L 34,31  L 35,31  L 35,30  L 36,30  L 36,29  L 37,29  L 37,28  L 38,28  L 38,27  L 39,27  L 39,26  L 40,26  L 40,25  L 41,25  L 41,24  L 42,24  L 42,23  L 43,23  L 43,22  L 44,22  L 44,21  L 45,21  L 45,20  L 47,20  L 47,18  L 48,18  L 48,17  L 52,17  L 52,18  L 53,18  L 53,19  L 54,19  Z  M 86,48  L 85,48  L 85,47  L 86,47  Z  " style="fill:rgb(255, 255, 255); fill-opacity:1.000; stroke:none;" />
 <path d="  M 64,91  L 64,90  L 65,90  L 65,89  L 66,89  L 66,92  L 34,92  L 34,90  L 36,90  L 36,91  Z  M 16,88  L 16,87  L 12,87  L 12,94  L 35,94  L 35,93  L 65,93  L 65,94  L 88,94  L 88,87  L 85,87  L 85,88  L 62,88  L 62,89  L 61,89  L 61,88  L 39,88  L 39,89  L 38,89  L 38,88  Z  M 34,92  L 34,93  L 32,93  L 32,92  Z  M 66,93  L 66,92  L 67,92  L 67,93  Z  " style="fill:rgb(255, 255, 255); fill-opacity:1.000; stroke:none;" />
 <path d="  M 38,86  L 37,86  L 37,70  L 36,70  L 36,69  L 37,69  L 37,53  L 63,53  L 63,86  L 62,86  L 62,54  L 38,54  Z  M 39,55  L 59,55  L 59,56  L 40,56  L 40,68  L 39,68  Z  M 39,87  L 61,87  L 61,88  L 62,88  L 62,87  L 84,87  L 84,76  L 83,76  L 83,75  L 84,75  L 84,70  L 82,70  L 82,78  L 81,78  L 81,79  L 66,79  L 66,78  L 65,78  L 65,56  L 82,56  L 82,69  L 84,69  L 84,51  L 16,51  L 16,69  L 18,69  L 18,56  L 35,56  L 35,78  L 34,78  L 34,79  L 19,79  L 19,78  L 18,78  L 18,70  L 16,70  L 16,75  L 17,75  L 17,76  L 16,76  L 16,87  L 38,87  L 38,88  L 39,88  Z  M 64,83  L 64,82  L 83,82  L 83,83  Z  M 36,82  L 36,83  L 17,83  L 17,82  Z  M 46,74  L 46,75  L 45,75  L 45,74  L 44,74  L 44,72  L 46,72  L 46,73  L 47,73  L 47,74  Z  M 61,58  L 60,58  L 60,57  L 61,57  Z  M 42,57  L 42,58  L 41,58  L 41,57  Z  " style="fill:rgb(255, 255, 255); fill-opacity:1.000; stroke:none;" />
 <path d="  M 22,45  L 22,46  L 20,46  L 20,47  L 19,47  L 19,48  L 18,48  L 18,49  L 17,49  L 17,50  L 84,50  L 84,49  L 83,49  L 83,48  L 82,48  L 82,47  L 80,47  L 80,46  L 79,46  L 79,45  Z  " style="fill:rgb(255, 255, 255); fill-opacity:1.000; stroke:none;" />
 <path d="  M 22,70  L 24,70  L 24,69  L 28,69  L 28,68  L 31,68  L 31,69  L 29,69  L 29,70  L 30,70  L 30,74  L 31,74  L 31,75  L 22,75  Z  M 19,57  L 19,78  L 34,78  L 34,57  Z  M 22,66  L 22,65  L 31,65  L 31,66  Z  M 22,60  L 22,59  L 31,59  L 31,60  Z  M 32,60  L 32,65  L 31,65  L 31,60  Z  M 32,69  L 32,70  L 31,70  L 31,69  Z  " style="fill:rgb(255, 255, 255); fill-opacity:1.000; stroke:none;" />
 <path d="  M 27,40  L 27,41  L 25,41  L 25,42  L 24,42  L 24,43  L 23,43  L 23,44  L 78,44  L 78,43  L 77,43  L 77,42  L 75,42  L 75,41  L 74,41  L 74,40  Z  " style="fill:rgb(255, 255, 255); fill-opacity:1.000; stroke:none;" />
 <path d="  M 32,35  L 32,36  L 30,36  L 30,37  L 70,37  L 70,36  L 69,36  L 69,35  Z  " style="fill:rgb(255, 255, 255); fill-opacity:1.000; stroke:none;" />
 <path d="  M 38,30  L 38,31  L 63,31  L 63,30  Z  " style="fill:rgb(255, 255, 255); fill-opacity:1.000; stroke:none;" />
 <path d="  M 69,65  L 78,65  L 78,66  L 69,66  Z  M 66,57  L 66,78  L 81,78  L 81,57  Z  M 76,70  L 78,70  L 78,75  L 69,75  L 69,74  L 70,74  L 70,70  L 71,70  L 71,69  L 76,69  Z  M 69,60  L 69,59  L 78,59  L 78,60  Z  M 69,65  L 68,65  L 68,60  L 69,60  Z  M 76,68  L 78,68  L 78,69  L 76,69  Z  M 69,69  L 69,70  L 68,70  L 68,69  Z  " style="fill:rgb(255, 255, 255); fill-opacity:1.000; stroke:none;" />
 <path d="  M 15,66  L 16,66  L 16,62  L 15,62  L 15,61  L 16,61  L 16,50  L 15,50  L 15,53  L 14,53  L 14,51  L 12,51  L 12,87  L 13,87  L 13,86  L 14,86  L 14,87  L 15,87  L 15,71  L 16,71  L 16,69  L 15,69  Z  " style="fill:rgb(167, 167, 167); fill-opacity:1.000; stroke:none;" />
 <path d="  M 16,48  L 16,49  L 17,49  L 17,48  Z  " style="fill:rgb(167, 167, 167); fill-opacity:1.000; stroke:none;" />
 <path d="  M 25,87  L 16,87  L 16,88  L 25,88  Z  " style="fill:rgb(167, 167, 167); fill-opacity:1.000; stroke:none;" />
 <path d="  M 18,47  L 17,47  L 17,48  L 18,48  Z  " style="fill:rgb(167, 167, 167); fill-opacity:1.000; stroke:none;" />
 <path d="  M 18,46  L 18,47  L 19,47  L 19,46  Z  " style="fill:rgb(167, 167, 167); fill-opacity:1.000; stroke:none;" />
 <path d="  M 20,46  L 20,45  L 19,45  L 19,46  Z  " style="fill:rgb(167, 167, 167); fill-opacity:1.000; stroke:none;" />
 <path d="  M 19,56  L 19,57  L 34,57  L 34,56  Z  " style="fill:rgb(167, 167, 167); fill-opacity:1.000; stroke:none;" />
 <path d="  M 20,44  L 20,45  L 21,45  L 21,44  Z  " style="fill:rgb(167, 167, 167); fill-opacity:1.000; stroke:none;" />
 <path d="  M 22,44  L 22,43  L 21,43  L 21,44  Z  " style="fill:rgb(167, 167, 167); fill-opacity:1.000; stroke:none;" />
 <path d="  M 22,42  L 22,43  L 23,43  L 23,42  Z  " style="fill:rgb(167, 167, 167); fill-opacity:1.000; stroke:none;" />
 <path d="  M 23,41  L 23,42  L 24,42  L 24,41  Z  " style="fill:rgb(167, 167, 167); fill-opacity:1.000; stroke:none;" />
 <path d="  M 24,40  L 24,41  L 25,41  L 25,40  Z  " style="fill:rgb(167, 167, 167); fill-opacity:1.000; stroke:none;" />
 <path d="  M 26,40  L 26,39  L 25,39  L 25,40  Z  " style="fill:rgb(167, 167, 167); fill-opacity:1.000; stroke:none;" />
 <path d="  M 27,39  L 28,39  L 28,37  L 27,37  Z  " style="fill:rgb(167, 167, 167); fill-opacity:1.000; stroke:none;" />
 <path d="  M 28,36  L 28,37  L 29,37  L 29,36  Z  " style="fill:rgb(167, 167, 167); fill-opacity:1.000; stroke:none;" />
 <path d="  M 31,68  L 28,68  L 28,69  L 31,69  Z  " style="fill:rgb(167, 167, 167); fill-opacity:1.000; stroke:none;" />
 <path d="  M 30,35  L 29,35  L 29,36  L 30,36  Z  " style="fill:rgb(167, 167, 167); fill-opacity:1.000; stroke:none;" />
 <path d="  M 31,35  L 32,35  L 32,34  L 31,34  Z  " style="fill:rgb(167, 167, 167); fill-opacity:1.000; stroke:none;" />
 <path d="  M 32,60  L 31,60  L 31,65  L 32,65  Z  " style="fill:rgb(167, 167, 167); fill-opacity:1.000; stroke:none;" />
 <path d="  M 32,70  L 32,69  L 31,69  L 31,70  Z  " style="fill:rgb(167, 167, 167); fill-opacity:1.000; stroke:none;" />
 <path d="  M 33,33  L 32,33  L 32,34  L 33,34  Z  " style="fill:rgb(167, 167, 167); fill-opacity:1.000; stroke:none;" />
 <path d="  M 32,92  L 32,93  L 34,93  L 34,92  Z  " style="fill:rgb(167, 167, 167); fill-opacity:1.000; stroke:none;" />
 <path d="  M 33,33  L 34,33  L 34,32  L 33,32  Z  " style="fill:rgb(167, 167, 167); fill-opacity:1.000; stroke:none;" />
 <path d="  M 34,31  L 34,32  L 35,32  L 35,31  Z  " style="fill:rgb(167, 167, 167); fill-opacity:1.000; stroke:none;" />
 <path d="  M 35,58  L 35,57  L 34,57  L 34,58  Z  " style="fill:rgb(167, 167, 167); fill-opacity:1.000; stroke:none;" />
 <path d="  M 34,63  L 34,64  L 35,64  L 35,63  Z  " style="fill:rgb(167, 167, 167); fill-opacity:1.000; stroke:none;" />
 <path d="  M 35,71  L 35,69  L 34,69  L 34,71  Z  " style="fill:rgb(167, 167, 167); fill-opacity:1.000; stroke:none;" />
 <path d="  M 34,75  L 34,77  L 35,77  L 35,75  Z  " style="fill:rgb(167, 167, 167); fill-opacity:1.000; stroke:none;" />
 <path d="  M 66,92  L 66,89  L 65,89  L 65,90  L 64,90  L 64,91  L 36,91  L 36,90  L 34,90  L 34,92  Z  " style="fill:rgb(167, 167, 167); fill-opacity:1.000; stroke:none;" />
 <path d="  M 35,31  L 36,31  L 36,30  L 35,30  Z  " style="fill:rgb(167, 167, 167); fill-opacity:1.000; stroke:none;" />
 <path d="  M 37,30  L 37,29  L 36,29  L 36,30  Z  " style="fill:rgb(167, 167, 167); fill-opacity:1.000; stroke:none;" />
 <path d="  M 37,29  L 38,29  L 38,28  L 37,28  Z  " style="fill:rgb(167, 167, 167); fill-opacity:1.000; stroke:none;" />
 <path d="  M 38,56  L 37,56  L 37,58  L 38,58  Z  " style="fill:rgb(167, 167, 167); fill-opacity:1.000; stroke:none;" />
 <path d="  M 37,65  L 38,65  L 38,63  L 37,63  Z  " style="fill:rgb(167, 167, 167); fill-opacity:1.000; stroke:none;" />
 <path d="  M 38,69  L 37,69  L 37,72  L 38,72  Z  " style="fill:rgb(167, 167, 167); fill-opacity:1.000; stroke:none;" />
 <path d="  M 38,75  L 37,75  L 37,79  L 38,79  Z  " style="fill:rgb(167, 167, 167); fill-opacity:1.000; stroke:none;" />
 <path d="  M 37,86  L 38,86  L 38,81  L 37,81  Z  " style="fill:rgb(167, 167, 167); fill-opacity:1.000; stroke:none;" />
 <path d="  M 38,88  L 38,87  L 37,87  L 37,88  Z  " style="fill:rgb(167, 167, 167); fill-opacity:1.000; stroke:none;" />
 <path d="  M 38,27  L 38,28  L 39,28  L 39,27  Z  " style="fill:rgb(167, 167, 167); fill-opacity:1.000; stroke:none;" />
 <path d="  M 62,54  L 62,53  L 38,53  L 38,54  Z  " style="fill:rgb(167, 167, 167); fill-opacity:1.000; stroke:none;" />
 <path d="  M 38,89  L 39,89  L 39,88  L 38,88  Z  " style="fill:rgb(167, 167, 167); fill-opacity:1.000; stroke:none;" />
 <path d="  M 39,27  L 40,27  L 40,26  L 39,26  Z  " style="fill:rgb(167, 167, 167); fill-opacity:1.000; stroke:none;" />
 <path d="  M 39,68  L 40,68  L 40,56  L 59,56  L 59,55  L 39,55  Z  " style="fill:rgb(167, 167, 167); fill-opacity:1.000; stroke:none;" />
 <path d="  M 39,87  L 39,88  L 61,88  L 61,87  Z  " style="fill:rgb(167, 167, 167); fill-opacity:1.000; stroke:none;" />
 <path d="  M 42,24  L 41,24  L 41,25  L 40,25  L 40,26  L 42,26  Z  " style="fill:rgb(167, 167, 167); fill-opacity:1.000; stroke:none;" />
 <path d="  M 42,23  L 42,24  L 43,24  L 43,23  Z  " style="fill:rgb(167, 167, 167); fill-opacity:1.000; stroke:none;" />
 <path d="  M 43,23  L 44,23  L 44,22  L 43,22  Z  " style="fill:rgb(167, 167, 167); fill-opacity:1.000; stroke:none;" />
 <path d="  M 47,20  L 45,20  L 45,21  L 44,21  L 44,22  L 46,22  L 46,21  L 47,21  Z  " style="fill:rgb(167, 167, 167); fill-opacity:1.000; stroke:none;" />
 <path d="  M 46,75  L 46,74  L 45,74  L 45,75  Z  " style="fill:rgb(167, 167, 167); fill-opacity:1.000; stroke:none;" />
 <path d="  M 47,73  L 46,73  L 46,74  L 47,74  Z  " style="fill:rgb(167, 167, 167); fill-opacity:1.000; stroke:none;" />
 <path d="  M 53,21  L 55,21  L 55,20  L 54,20  L 54,19  L 53,19  L 53,18  L 52,18  L 52,17  L 51,17  L 51,19  L 49,19  L 49,17  L 48,17  L 48,18  L 47,18  L 47,20  L 53,20  Z  " style="fill:rgb(167, 167, 167); fill-opacity:1.000; stroke:none;" />
 <path d="  M 55,21  L 55,22  L 56,22  L 56,21  Z  " style="fill:rgb(167, 167, 167); fill-opacity:1.000; stroke:none;" />
 <path d="  M 57,23  L 57,22  L 56,22  L 56,23  Z  " style="fill:rgb(167, 167, 167); fill-opacity:1.000; stroke:none;" />
 <path d="  M 58,24  L 58,23  L 57,23  L 57,24  Z  " style="fill:rgb(167, 167, 167); fill-opacity:1.000; stroke:none;" />
 <path d="  M 60,25  L 59,25  L 59,24  L 58,24  L 58,26  L 60,26  Z  " style="fill:rgb(167, 167, 167); fill-opacity:1.000; stroke:none;" />
 <path d="  M 61,27  L 61,26  L 60,26  L 60,27  Z  " style="fill:rgb(167, 167, 167); fill-opacity:1.000; stroke:none;" />
 <path d="  M 61,57  L 60,57  L 60,58  L 61,58  Z  " style="fill:rgb(167, 167, 167); fill-opacity:1.000; stroke:none;" />
 <path d="  M 62,28  L 62,27  L 61,27  L 61,28  Z  " style="fill:rgb(167, 167, 167); fill-opacity:1.000; stroke:none;" />
 <path d="  M 61,89  L 62,89  L 62,88  L 61,88  Z  " style="fill:rgb(167, 167, 167); fill-opacity:1.000; stroke:none;" />
 <path d="  M 62,29  L 63,29  L 63,28  L 62,28  Z  " style="fill:rgb(167, 167, 167); fill-opacity:1.000; stroke:none;" />
 <path d="  M 62,59  L 63,59  L 63,56  L 62,56  Z  " style="fill:rgb(167, 167, 167); fill-opacity:1.000; stroke:none;" />
 <path d="  M 63,62  L 62,62  L 62,67  L 63,67  Z  " style="fill:rgb(167, 167, 167); fill-opacity:1.000; stroke:none;" />
 <path d="  M 63,68  L 62,68  L 62,73  L 63,73  Z  " style="fill:rgb(167, 167, 167); fill-opacity:1.000; stroke:none;" />
 <path d="  M 63,74  L 62,74  L 62,86  L 63,86  Z  " style="fill:rgb(167, 167, 167); fill-opacity:1.000; stroke:none;" />
 <path d="  M 62,87  L 62,88  L 63,88  L 63,87  Z  " style="fill:rgb(167, 167, 167); fill-opacity:1.000; stroke:none;" />
 <path d="  M 65,29  L 64,29  L 64,30  L 65,30  Z  " style="fill:rgb(167, 167, 167); fill-opacity:1.000; stroke:none;" />
 <path d="  M 66,33  L 68,33  L 68,32  L 67,32  L 67,31  L 66,31  L 66,30  L 65,30  L 65,32  L 66,32  Z  " style="fill:rgb(167, 167, 167); fill-opacity:1.000; stroke:none;" />
 <path d="  M 65,58  L 66,58  L 66,57  L 65,57  Z  " style="fill:rgb(167, 167, 167); fill-opacity:1.000; stroke:none;" />
 <path d="  M 66,64  L 66,63  L 65,63  L 65,64  Z  " style="fill:rgb(167, 167, 167); fill-opacity:1.000; stroke:none;" />
 <path d="  M 65,71  L 66,71  L 66,69  L 65,69  Z  " style="fill:rgb(167, 167, 167); fill-opacity:1.000; stroke:none;" />
 <path d="  M 65,77  L 66,77  L 66,75  L 65,75  Z  " style="fill:rgb(167, 167, 167); fill-opacity:1.000; stroke:none;" />
 <path d="  M 66,56  L 66,57  L 81,57  L 81,56  Z  " style="fill:rgb(167, 167, 167); fill-opacity:1.000; stroke:none;" />
 <path d="  M 66,93  L 67,93  L 67,92  L 66,92  Z  " style="fill:rgb(167, 167, 167); fill-opacity:1.000; stroke:none;" />
 <path d="  M 69,33  L 68,33  L 68,34  L 69,34  Z  " style="fill:rgb(167, 167, 167); fill-opacity:1.000; stroke:none;" />
 <path d="  M 69,60  L 68,60  L 68,65  L 69,65  Z  " style="fill:rgb(167, 167, 167); fill-opacity:1.000; stroke:none;" />
 <path d="  M 69,69  L 68,69  L 68,70  L 69,70  Z  " style="fill:rgb(167, 167, 167); fill-opacity:1.000; stroke:none;" />
 <path d="  M 70,34  L 69,34  L 69,35  L 70,35  Z  " style="fill:rgb(167, 167, 167); fill-opacity:1.000; stroke:none;" />
 <path d="  M 70,35  L 70,36  L 71,36  L 71,35  Z  " style="fill:rgb(167, 167, 167); fill-opacity:1.000; stroke:none;" />
 <path d="  M 71,23  L 72,23  L 72,19  L 71,19  Z  " style="fill:rgb(167, 167, 167); fill-opacity:1.000; stroke:none;" />
 <path d="  M 71,36  L 71,37  L 72,37  L 72,36  Z  " style="fill:rgb(167, 167, 167); fill-opacity:1.000; stroke:none;" />
 <path d="  M 74,66  L 74,65  L 71,65  L 71,66  Z  " style="fill:rgb(167, 167, 167); fill-opacity:1.000; stroke:none;" />
 <path d="  M 74,27  L 74,26  L 73,26  L 73,25  L 72,25  L 72,28  L 73,28  L 73,29  L 74,29  L 74,30  L 75,30  L 75,31  L 76,31  L 76,32  L 77,32  L 77,33  L 78,33  L 78,30  L 77,30  L 77,29  L 76,29  L 76,28  L 75,28  L 75,27  Z  " style="fill:rgb(167, 167, 167); fill-opacity:1.000; stroke:none;" />
 <path d="  M 73,37  L 72,37  L 72,38  L 73,38  Z  " style="fill:rgb(167, 167, 167); fill-opacity:1.000; stroke:none;" />
 <path d="  M 72,87  L 72,88  L 85,88  L 85,87  Z  " style="fill:rgb(167, 167, 167); fill-opacity:1.000; stroke:none;" />
 <path d="  M 73,38  L 73,39  L 74,39  L 74,38  Z  " style="fill:rgb(167, 167, 167); fill-opacity:1.000; stroke:none;" />
 <path d="  M 74,39  L 74,40  L 75,40  L 75,39  Z  " style="fill:rgb(167, 167, 167); fill-opacity:1.000; stroke:none;" />
 <path d="  M 75,40  L 75,41  L 76,41  L 76,40  Z  " style="fill:rgb(167, 167, 167); fill-opacity:1.000; stroke:none;" />
 <path d="  M 77,41  L 76,41  L 76,42  L 77,42  Z  " style="fill:rgb(167, 167, 167); fill-opacity:1.000; stroke:none;" />
 <path d="  M 78,69  L 78,68  L 76,68  L 76,69  Z  " style="fill:rgb(167, 167, 167); fill-opacity:1.000; stroke:none;" />
 <path d="  M 80,28  L 80,29  L 82,29  L 82,19  L 81,19  L 81,20  L 80,20  L 80,19  L 79,19  L 79,26  L 78,26  L 78,30  L 79,30  L 79,28  Z  " style="fill:rgb(167, 167, 167); fill-opacity:1.000; stroke:none;" />
 <path d="  M 78,42  L 78,43  L 79,43  L 79,42  Z  " style="fill:rgb(167, 167, 167); fill-opacity:1.000; stroke:none;" />
 <path d="  M 80,45  L 80,43  L 79,43  L 79,45  Z  " style="fill:rgb(167, 167, 167); fill-opacity:1.000; stroke:none;" />
 <path d="  M 81,45  L 80,45  L 80,46  L 81,46  Z  " style="fill:rgb(167, 167, 167); fill-opacity:1.000; stroke:none;" />
 <path d="  M 82,46  L 82,47  L 83,47  L 83,46  Z  " style="fill:rgb(167, 167, 167); fill-opacity:1.000; stroke:none;" />
 <path d="  M 83,47  L 83,48  L 84,48  L 84,47  Z  " style="fill:rgb(167, 167, 167); fill-opacity:1.000; stroke:none;" />
 <path d="  M 85,87  L 88,87  L 88,52  L 87,52  L 87,51  L 86,51  L 86,53  L 85,53  L 85,49  L 84,49  L 84,61  L 85,61  L 85,62  L 84,62  L 84,66  L 85,66  L 85,69  L 84,69  L 84,71  L 85,71  Z  " style="fill:rgb(167, 167, 167); fill-opacity:1.000; stroke:none;" />
 <path d="  M 13,86  L 13,87  L 14,87  L 14,86  Z  " style="fill:rgb(219, 219, 219); fill-opacity:1.000; stroke:none;" />
 <path d="  M 15,61  L 15,62  L 16,62  L 16,61  Z  " style="fill:rgb(219, 219, 219); fill-opacity:1.000; stroke:none;" />
 <path d="  M 15,66  L 15,69  L 16,69  L 16,66  Z  " style="fill:rgb(219, 219, 219); fill-opacity:1.000; stroke:none;" />
 <path d="  M 16,76  L 17,76  L 17,75  L 16,75  L 16,71  L 15,71  L 15,87  L 16,87  Z  " style="fill:rgb(219, 219, 219); fill-opacity:1.000; stroke:none;" />
 <path d="  M 84,51  L 84,50  L 17,50  L 17,49  L 16,49  L 16,51  Z  " style="fill:rgb(219, 219, 219); fill-opacity:1.000; stroke:none;" />
 <path d="  M 19,56  L 18,56  L 18,69  L 16,69  L 16,70  L 18,70  L 18,78  L 19,78  Z  " style="fill:rgb(219, 219, 219); fill-opacity:1.000; stroke:none;" />
 <path d="  M 17,49  L 18,49  L 18,48  L 17,48  Z  " style="fill:rgb(219, 219, 219); fill-opacity:1.000; stroke:none;" />
 <path d="  M 36,83  L 36,82  L 17,82  L 17,83  Z  " style="fill:rgb(219, 219, 219); fill-opacity:1.000; stroke:none;" />
 <path d="  M 18,47  L 18,48  L 19,48  L 19,47  Z  " style="fill:rgb(219, 219, 219); fill-opacity:1.000; stroke:none;" />
 <path d="  M 19,47  L 20,47  L 20,46  L 19,46  Z  " style="fill:rgb(219, 219, 219); fill-opacity:1.000; stroke:none;" />
 <path d="  M 34,79  L 34,78  L 19,78  L 19,79  Z  " style="fill:rgb(219, 219, 219); fill-opacity:1.000; stroke:none;" />
 <path d="  M 22,43  L 22,44  L 21,44  L 21,45  L 20,45  L 20,46  L 22,46  L 22,45  L 79,45  L 79,43  L 78,43  L 78,44  L 23,44  L 23,43  Z  " style="fill:rgb(219, 219, 219); fill-opacity:1.000; stroke:none;" />
 <path d="  M 22,59  L 22,60  L 31,60  L 31,59  Z  " style="fill:rgb(219, 219, 219); fill-opacity:1.000; stroke:none;" />
 <path d="  M 31,66  L 31,65  L 22,65  L 22,66  Z  " style="fill:rgb(219, 219, 219); fill-opacity:1.000; stroke:none;" />
 <path d="  M 31,75  L 31,74  L 30,74  L 30,70  L 29,70  L 29,69  L 24,69  L 24,70  L 22,70  L 22,75  Z  " style="fill:rgb(219, 219, 219); fill-opacity:1.000; stroke:none;" />
 <path d="  M 23,43  L 24,43  L 24,42  L 23,42  Z  " style="fill:rgb(219, 219, 219); fill-opacity:1.000; stroke:none;" />
 <path d="  M 25,42  L 25,41  L 24,41  L 24,42  Z  " style="fill:rgb(219, 219, 219); fill-opacity:1.000; stroke:none;" />
 <path d="  M 26,39  L 26,40  L 25,40  L 25,41  L 27,41  L 27,40  L 74,40  L 74,39  L 73,39  L 73,38  L 72,38  L 72,37  L 71,37  L 71,36  L 70,36  L 70,37  L 30,37  L 30,36  L 29,36  L 29,37  L 28,37  L 28,39  Z  " style="fill:rgb(219, 219, 219); fill-opacity:1.000; stroke:none;" />
 <path d="  M 25,87  L 25,88  L 37,88  L 37,87  Z  " style="fill:rgb(219, 219, 219); fill-opacity:1.000; stroke:none;" />
 <path d="  M 30,35  L 30,36  L 32,36  L 32,35  Z  " style="fill:rgb(219, 219, 219); fill-opacity:1.000; stroke:none;" />
 <path d="  M 38,31  L 38,30  L 63,30  L 63,31  Z  M 43,24  L 42,24  L 42,26  L 40,26  L 40,27  L 39,27  L 39,28  L 38,28  L 38,29  L 37,29  L 37,30  L 36,30  L 36,31  L 35,31  L 35,32  L 34,32  L 34,33  L 33,33  L 33,34  L 32,34  L 32,35  L 69,35  L 69,34  L 68,34  L 68,33  L 66,33  L 66,32  L 65,32  L 65,30  L 64,30  L 64,29  L 62,29  L 62,28  L 61,28  L 61,27  L 60,27  L 60,26  L 58,26  L 58,24  L 57,24  L 57,23  L 56,23  L 56,22  L 55,22  L 55,21  L 53,21  L 53,20  L 47,20  L 47,21  L 46,21  L 46,22  L 44,22  L 44,23  L 43,23  Z  " style="fill:rgb(219, 219, 219); fill-opacity:1.000; stroke:none;" />
 <path d="  M 34,57  L 35,57  L 35,56  L 34,56  Z  " style="fill:rgb(219, 219, 219); fill-opacity:1.000; stroke:none;" />
 <path d="  M 34,58  L 34,63  L 35,63  L 35,58  Z  " style="fill:rgb(219, 219, 219); fill-opacity:1.000; stroke:none;" />
 <path d="  M 35,64  L 34,64  L 34,69  L 35,69  Z  " style="fill:rgb(219, 219, 219); fill-opacity:1.000; stroke:none;" />
 <path d="  M 34,75  L 35,75  L 35,71  L 34,71  Z  " style="fill:rgb(219, 219, 219); fill-opacity:1.000; stroke:none;" />
 <path d="  M 35,78  L 35,77  L 34,77  L 34,78  Z  " style="fill:rgb(219, 219, 219); fill-opacity:1.000; stroke:none;" />
 <path d="  M 37,70  L 37,69  L 36,69  L 36,70  Z  " style="fill:rgb(219, 219, 219); fill-opacity:1.000; stroke:none;" />
 <path d="  M 38,53  L 37,53  L 37,56  L 38,56  Z  " style="fill:rgb(219, 219, 219); fill-opacity:1.000; stroke:none;" />
 <path d="  M 37,58  L 37,63  L 38,63  L 38,58  Z  " style="fill:rgb(219, 219, 219); fill-opacity:1.000; stroke:none;" />
 <path d="  M 37,69  L 38,69  L 38,65  L 37,65  Z  " style="fill:rgb(219, 219, 219); fill-opacity:1.000; stroke:none;" />
 <path d="  M 38,72  L 37,72  L 37,75  L 38,75  Z  " style="fill:rgb(219, 219, 219); fill-opacity:1.000; stroke:none;" />
 <path d="  M 37,81  L 38,81  L 38,79  L 37,79  Z  " style="fill:rgb(219, 219, 219); fill-opacity:1.000; stroke:none;" />
 <path d="  M 44,72  L 44,74  L 46,74  L 46,72  Z  " style="fill:rgb(219, 219, 219); fill-opacity:1.000; stroke:none;" />
 <path d="  M 49,19  L 51,19  L 51,17  L 49,17  Z  " style="fill:rgb(219, 219, 219); fill-opacity:1.000; stroke:none;" />
 <path d="  M 62,56  L 63,56  L 63,53  L 62,53  Z  " style="fill:rgb(219, 219, 219); fill-opacity:1.000; stroke:none;" />
 <path d="  M 63,59  L 62,59  L 62,62  L 63,62  Z  " style="fill:rgb(219, 219, 219); fill-opacity:1.000; stroke:none;" />
 <path d="  M 62,67  L 62,68  L 63,68  L 63,67  Z  " style="fill:rgb(219, 219, 219); fill-opacity:1.000; stroke:none;" />
 <path d="  M 63,74  L 63,73  L 62,73  L 62,74  Z  " style="fill:rgb(219, 219, 219); fill-opacity:1.000; stroke:none;" />
 <path d="  M 72,87  L 63,87  L 63,88  L 72,88  Z  " style="fill:rgb(219, 219, 219); fill-opacity:1.000; stroke:none;" />
 <path d="  M 83,83  L 83,82  L 64,82  L 64,83  Z  " style="fill:rgb(219, 219, 219); fill-opacity:1.000; stroke:none;" />
 <path d="  M 65,57  L 66,57  L 66,56  L 65,56  Z  " style="fill:rgb(219, 219, 219); fill-opacity:1.000; stroke:none;" />
 <path d="  M 66,58  L 65,58  L 65,63  L 66,63  Z  " style="fill:rgb(219, 219, 219); fill-opacity:1.000; stroke:none;" />
 <path d="  M 66,64  L 65,64  L 65,69  L 66,69  Z  " style="fill:rgb(219, 219, 219); fill-opacity:1.000; stroke:none;" />
 <path d="  M 66,71  L 65,71  L 65,75  L 66,75  Z  " style="fill:rgb(219, 219, 219); fill-opacity:1.000; stroke:none;" />
 <path d="  M 66,78  L 66,77  L 65,77  L 65,78  Z  " style="fill:rgb(219, 219, 219); fill-opacity:1.000; stroke:none;" />
 <path d="  M 66,78  L 66,79  L 81,79  L 81,78  Z  " style="fill:rgb(219, 219, 219); fill-opacity:1.000; stroke:none;" />
 <path d="  M 69,36  L 70,36  L 70,35  L 69,35  Z  " style="fill:rgb(219, 219, 219); fill-opacity:1.000; stroke:none;" />
 <path d="  M 78,60  L 78,59  L 69,59  L 69,60  Z  " style="fill:rgb(219, 219, 219); fill-opacity:1.000; stroke:none;" />
 <path d="  M 69,65  L 69,66  L 71,66  L 71,65  Z  " style="fill:rgb(219, 219, 219); fill-opacity:1.000; stroke:none;" />
 <path d="  M 78,75  L 78,70  L 76,70  L 76,69  L 71,69  L 71,70  L 70,70  L 70,74  L 69,74  L 69,75  Z  " style="fill:rgb(219, 219, 219); fill-opacity:1.000; stroke:none;" />
 <path d="  M 73,23  L 73,22  L 72,22  L 72,25  L 73,25  L 73,26  L 74,26  L 74,27  L 75,27  L 75,28  L 76,28  L 76,29  L 77,29  L 77,30  L 78,30  L 78,27  L 77,27  L 77,26  L 76,26  L 76,25  L 75,25  L 75,24  L 74,24  L 74,23  Z  " style="fill:rgb(219, 219, 219); fill-opacity:1.000; stroke:none;" />
 <path d="  M 74,41  L 75,41  L 75,40  L 74,40  Z  " style="fill:rgb(219, 219, 219); fill-opacity:1.000; stroke:none;" />
 <path d="  M 74,65  L 74,66  L 78,66  L 78,65  Z  " style="fill:rgb(219, 219, 219); fill-opacity:1.000; stroke:none;" />
 <path d="  M 76,42  L 76,41  L 75,41  L 75,42  Z  " style="fill:rgb(219, 219, 219); fill-opacity:1.000; stroke:none;" />
 <path d="  M 78,43  L 78,42  L 77,42  L 77,43  Z  " style="fill:rgb(219, 219, 219); fill-opacity:1.000; stroke:none;" />
 <path d="  M 78,19  L 78,26  L 79,26  L 79,19  Z  " style="fill:rgb(219, 219, 219); fill-opacity:1.000; stroke:none;" />
 <path d="  M 80,46  L 80,45  L 79,45  L 79,46  Z  " style="fill:rgb(219, 219, 219); fill-opacity:1.000; stroke:none;" />
 <path d="  M 80,19  L 80,20  L 81,20  L 81,19  Z  " style="fill:rgb(219, 219, 219); fill-opacity:1.000; stroke:none;" />
 <path d="  M 80,46  L 80,47  L 82,47  L 82,46  Z  " style="fill:rgb(219, 219, 219); fill-opacity:1.000; stroke:none;" />
 <path d="  M 82,56  L 81,56  L 81,78  L 82,78  L 82,70  L 84,70  L 84,69  L 82,69  Z  " style="fill:rgb(219, 219, 219); fill-opacity:1.000; stroke:none;" />
 <path d="  M 82,47  L 82,48  L 83,48  L 83,47  Z  " style="fill:rgb(219, 219, 219); fill-opacity:1.000; stroke:none;" />
 <path d="  M 83,48  L 83,49  L 84,49  L 84,48  Z  " style="fill:rgb(219, 219, 219); fill-opacity:1.000; stroke:none;" />
 <path d="  M 85,71  L 84,71  L 84,75  L 83,75  L 83,76  L 84,76  L 84,87  L 85,87  Z  " style="fill:rgb(219, 219, 219); fill-opacity:1.000; stroke:none;" />
 <path d="  M 85,61  L 84,61  L 84,62  L 85,62  Z  " style="fill:rgb(219, 219, 219); fill-opacity:1.000; stroke:none;" />
 <path d="  M 85,66  L 84,66  L 84,69  L 85,69  Z  " style="fill:rgb(219, 219, 219); fill-opacity:1.000; stroke:none;" />
</svg>
